<svg width="100" height="100" viewBox="0 0 100 100" fill="none" xmlns="http://www.w3.org/2000/svg">
<rect width="100" height="100" rx="14" fill="url(#paint0_linear_2_3)"/>
<g filter="url(#filter0_ddi_2_3)">
<mask id="path-2-inside-1_2_3" fill="white">
<path d="M27.272 64V34.9091H34.3033V58.2898H46.4055V64H27.272ZM50.0455 64V34.9091H57.0767V47.2102H57.4602L67.0767 34.9091H75.358L65.0455 47.892L75.5426 64H67.1335L59.8892 52.5653L57.0767 56.1165V64H50.0455Z"/>
</mask>
<path d="M27.272 64V34.9091H34.3033V58.2898H46.4055V64H27.272ZM50.0455 64V34.9091H57.0767V47.2102H57.4602L67.0767 34.9091H75.358L65.0455 47.892L75.5426 64H67.1335L59.8892 52.5653L57.0767 56.1165V64H50.0455Z" fill="black"/>
<path d="M27.272 64H26.272V65H27.272V64ZM27.272 34.9091V33.9091H26.272V34.9091H27.272ZM34.3033 34.9091H35.3033V33.9091H34.3033V34.9091ZM34.3033 58.2898H33.3033V59.2898H34.3033V58.2898ZM46.4055 58.2898H47.4055V57.2898H46.4055V58.2898ZM46.4055 64V65H47.4055V64H46.4055ZM27.272 64H28.272V34.9091H27.272H26.272V64H27.272ZM27.272 34.9091V35.9091H34.3033V34.9091V33.9091H27.272V34.9091ZM34.3033 34.9091H33.3033V58.2898H34.3033H35.3033V34.9091H34.3033ZM34.3033 58.2898V59.2898H46.4055V58.2898V57.2898H34.3033V58.2898ZM46.4055 58.2898H45.4055V64H46.4055H47.4055V58.2898H46.4055ZM46.4055 64V63H27.272V64V65H46.4055V64ZM50.0455 64H49.0455V65H50.0455V64ZM50.0455 34.9091V33.9091H49.0455V34.9091H50.0455ZM57.0767 34.9091H58.0767V33.9091H57.0767V34.9091ZM57.0767 47.2102H56.0767V48.2102H57.0767V47.2102ZM57.4602 47.2102V48.2102H57.9478L58.2481 47.8261L57.4602 47.2102ZM67.0767 34.9091V33.9091H66.5892L66.2889 34.2932L67.0767 34.9091ZM75.358 34.9091L76.141 35.5311L77.4293 33.9091H75.358V34.9091ZM65.0455 47.892L64.2624 47.2701L63.8142 47.8343L64.2077 48.438L65.0455 47.892ZM75.5426 64V65H77.3879L76.3804 63.454L75.5426 64ZM67.1335 64L66.2888 64.5352L66.5833 65H67.1335V64ZM59.8892 52.5653L60.7339 52.0302L59.98 50.8401L59.1053 51.9445L59.8892 52.5653ZM57.0767 56.1165L56.2928 55.4956L56.0767 55.7684V56.1165H57.0767ZM57.0767 64V65H58.0767V64H57.0767ZM50.0455 64H51.0455V34.9091H50.0455H49.0455V64H50.0455ZM50.0455 34.9091V35.9091H57.0767V34.9091V33.9091H50.0455V34.9091ZM57.0767 34.9091H56.0767V47.2102H57.0767H58.0767V34.9091H57.0767ZM57.0767 47.2102V48.2102H57.4602V47.2102V46.2102H57.0767V47.2102ZM57.4602 47.2102L58.2481 47.8261L67.8645 35.525L67.0767 34.9091L66.2889 34.2932L56.6724 46.5943L57.4602 47.2102ZM67.0767 34.9091V35.9091H75.358V34.9091V33.9091H67.0767V34.9091ZM75.358 34.9091L74.5749 34.2871L64.2624 47.2701L65.0455 47.892L65.8285 48.514L76.141 35.5311L75.358 34.9091ZM65.0455 47.892L64.2077 48.438L74.7048 64.546L75.5426 64L76.3804 63.454L65.8833 47.3461L65.0455 47.892ZM75.5426 64V63H67.1335V64V65H75.5426V64ZM67.1335 64L67.9783 63.4648L60.7339 52.0302L59.8892 52.5653L59.0445 53.1005L66.2888 64.5352L67.1335 64ZM59.8892 52.5653L59.1053 51.9445L56.2928 55.4956L57.0767 56.1165L57.8606 56.7373L60.6731 53.1862L59.8892 52.5653ZM57.0767 56.1165H56.0767V64H57.0767H58.0767V56.1165H57.0767ZM57.0767 64V63H50.0455V64V65H57.0767V64Z" fill="#1C1C21" mask="url(#path-2-inside-1_2_3)"/>
</g>
<defs>
<filter id="filter0_ddi_2_3" x="13.8759" y="29.1679" width="75.0628" height="55.8832" filterUnits="userSpaceOnUse" color-interpolation-filters="sRGB">
<feFlood flood-opacity="0" result="BackgroundImageFix"/>
<feColorMatrix in="SourceAlpha" type="matrix" values="0 0 0 0 0 0 0 0 0 0 0 0 0 0 0 0 0 0 127 0" result="hardAlpha"/>
<feMorphology radius="1" operator="dilate" in="SourceAlpha" result="effect1_dropShadow_2_3"/>
<feOffset/>
<feComposite in2="hardAlpha" operator="out"/>
<feColorMatrix type="matrix" values="0 0 0 0 0.784314 0 0 0 0 0.858824 0 0 0 0 0.917647 0 0 0 1 0"/>
<feBlend mode="normal" in2="BackgroundImageFix" result="effect1_dropShadow_2_3"/>
<feColorMatrix in="SourceAlpha" type="matrix" values="0 0 0 0 0 0 0 0 0 0 0 0 0 0 0 0 0 0 127 0" result="hardAlpha"/>
<feMorphology radius="5.74118" operator="erode" in="SourceAlpha" result="effect2_dropShadow_2_3"/>
<feOffset dy="7.6549"/>
<feGaussianBlur stdDeviation="9.56865"/>
<feComposite in2="hardAlpha" operator="out"/>
<feColorMatrix type="matrix" values="0 0 0 0 0.788235 0 0 0 0 0.858824 0 0 0 0 0.917647 0 0 0 0.32 0"/>
<feBlend mode="normal" in2="effect1_dropShadow_2_3" result="effect2_dropShadow_2_3"/>
<feBlend mode="normal" in="SourceGraphic" in2="effect2_dropShadow_2_3" result="shape"/>
<feColorMatrix in="SourceAlpha" type="matrix" values="0 0 0 0 0 0 0 0 0 0 0 0 0 0 0 0 0 0 127 0" result="hardAlpha"/>
<feOffset dy="3.82745"/>
<feGaussianBlur stdDeviation="4"/>
<feComposite in2="hardAlpha" operator="arithmetic" k2="-1" k3="1"/>
<feColorMatrix type="matrix" values="0 0 0 0 0.0470588 0 0 0 0 0.286275 0 0 0 0 0.52549 0 0 0 0.04 0"/>
<feBlend mode="normal" in2="shape" result="effect3_innerShadow_2_3"/>
</filter>
<linearGradient id="paint0_linear_2_3" x1="50" y1="0" x2="50" y2="100" gradientUnits="userSpaceOnUse">
<stop stop-color="#EBF3FA"/>
<stop offset="1" stop-color="#DFEDFA"/>
</linearGradient>
</defs>
</svg>
